# xmcd CD database file
#
# Track frame offsets:
#	150
#	23613
#	56563
#	81463
#	106000
#	146275
#	182500
#	217813
#	240188
#
# Disc length: 3747 seconds
#
# Revision: 0
# Processed by: cddbd v1.5.1PL0 Copyright (c) Steve Scherf et al.
# Submitted via: CDex 1.51
#
DISCID=630ea109
DTITLE=Spike Robinson - Spring can really hang you up the most
DYEAR=1985
DGENRE=Jazz
TTITLE0=Love walked in
TTITLE1=Talk of the town
TTITLE2=Some time ago
TTITLE3=For you, for me, for evermore
TTITLE4=Lover come back to me
TTITLE5=Ghost of a chance
TTITLE6=Shadow of your smile
TTITLE7=Spril showers
TTITLE8=Spring can really hang you up the most
EXTD=YEAR: 1985
EXTT0=
EXTT1=
EXTT2=
EXTT3=
EXTT4=
EXTT5=
EXTT6=
EXTT7=
EXTT8=
PLAYORDER=
